<?xml version="1.0" encoding="UTF-8"?><svg id="a" xmlns="http://www.w3.org/2000/svg" viewBox="0 0 300.79 300.79"><defs><style>.b, .c, .d {
  stroke-linejoin: round;
  stroke-width: 3px;
}

.b, .e {
  fill: none;
}

.b, .e, .f, .d {
  stroke: #fff;
}

.g {
  fill: #fff;
}

.c {
  stroke: #000;
}

.e, .f {
  stroke-miterlimit: 10;
  stroke-width: 2px;
}

</style></defs><circle class="c" cx="150.4" cy="150.4" r="148.9"></circle><polyline class="b" points="124.02 111.5 90.24 127.66 56.46 111.5"></polyline><path class="b" d="M150.77,10.72l-20.45,26.66c-20.69,26.98-52.49,43.15-86.48,43.98l-33.59,.82"></path><path class="g" d="M299.29,150.4C299.29,68.16,232.63,1.5,150.4,1.5V299.29c82.23,0,148.9-66.66,148.9-148.9Z"></path><polyline class="d" points="150.4 1.5 150.4 124.32 180.25 193.65 150.4 193.65 150.4 239.88 100.31 239.88 150.4 239.88 150.4 299.29"></polyline><polygon points="193.97 65.74 213.16 68.59 193.87 70.64 191.01 89.84 188.96 70.54 169.77 67.68 189.07 65.64 191.92 46.44 193.97 65.74"></polygon><polygon points="251.78 97.06 270.35 99.82 251.69 101.8 248.92 120.37 246.94 101.7 228.37 98.94 247.04 96.96 249.8 78.39 251.78 97.06"></polygon><polygon points="213.94 125.94 227.67 127.98 213.86 129.45 211.82 143.18 210.36 129.37 196.63 127.33 210.43 125.87 212.47 112.14 213.94 125.94"></polygon><g><path class="f" d="M223.14,205.46l19.84,13.99,7.49-10.63-2.12-17.05,15.36-21.78c6.53-9.26,1.6-24.33,1.6-24.33,0,0-15.85,.41-22.38,9.68l-15.36,21.78-16.78,3.73-7.49,10.63,19.84,13.99Z"></path><circle class="f" cx="251.45" cy="165.31" r="5.39"></circle><circle class="f" cx="243.3" cy="176.86" r="3.77"></circle><line class="e" x1="250.49" y1="149.23" x2="267.05" y2="160.91"></line><line class="e" x1="227.57" y1="177.11" x2="212.75" y2="198.13"></line><line class="e" x1="248.36" y1="191.76" x2="233.53" y2="212.78"></line><polyline class="e" points="220.06 203.28 234.75 182.46 240.91 186.81 226.22 207.63"></polyline><line class="e" x1="227.81" y1="192.72" x2="233.97" y2="197.06"></line><polygon class="f" points="210.64 201.13 176.95 270.96 231.42 215.78 210.64 201.13"></polygon></g></svg>