<svg id="a" xmlns="http://www.w3.org/2000/svg" viewBox="0 0 300.79 300.79"><defs><style>.b{stroke-linejoin:round;stroke-width:3px}.b,.e{fill:none}.b,.e,.f{stroke:#fff}.e,.f{stroke-miterlimit:10;stroke-width:2px}</style></defs><circle cx="150.4" cy="150.4" r="148.9" style="stroke:#000;stroke-linejoin:round;stroke-width:3px"/><path class="b" d="m124.02 111.5-33.78 16.16-33.78-16.16M150.77 10.72l-20.45 26.66a112.45 112.45 0 0 1-86.48 43.98l-33.59.82"/><path d="M299.29 150.4c0-82.24-66.66-148.9-148.89-148.9v297.79c82.23 0 148.9-66.66 148.9-148.9Z" style="fill:#fff"/><path style="stroke:#fff;stroke-linejoin:round;stroke-width:3px" d="M150.4 1.5v122.82l29.85 69.33H150.4v46.23h-50.09 50.09v59.41"/><path d="m193.97 65.74 19.19 2.85-19.29 2.05-2.86 19.2-2.05-19.3-19.19-2.86 19.3-2.04 2.85-19.2 2.05 19.3zM251.78 97.06l18.57 2.76-18.66 1.98-2.77 18.57-1.98-18.67-18.57-2.76 18.67-1.98 2.76-18.57 1.98 18.67zM213.94 125.94l13.73 2.04-13.81 1.47-2.04 13.73-1.46-13.81-13.73-2.04 13.8-1.46 2.04-13.73 1.47 13.8z"/><path class="f" d="m223.14 205.46 19.84 13.99 7.49-10.63-2.12-17.05 15.36-21.78c6.53-9.26 1.6-24.33 1.6-24.33s-15.85.41-22.38 9.68l-15.36 21.78-16.78 3.73-7.49 10.63 19.84 13.99Z"/><circle class="f" cx="251.45" cy="165.31" r="5.39"/><circle class="f" cx="243.3" cy="176.86" r="3.77"/><path class="e" d="m250.49 149.23 16.56 11.68M227.57 177.11l-14.82 21.02M248.36 191.76l-14.83 21.02M220.06 203.28l14.69-20.82 6.16 4.35-14.69 20.82M227.81 192.72l6.16 4.34"/><path class="f" d="m210.64 201.13-33.69 69.83 54.47-55.18-20.78-14.65z"/></svg>